<svg version="1.1" xmlns="http://www.w3.org/2000/svg" width="538" height="318">
    <path
        d="M0 0 C4.45847789 22.12906974 8.90930564 44.2596657 13.35096073 66.39211845 C15.41334688 76.66791209 17.47826007 86.94318595 19.54907227 97.21728516 C21.35339479 106.16925895 23.15302739 115.12216033 24.94696802 124.07622063 C25.89753952 128.81993026 26.85049786 133.56313275 27.80906868 138.305233 C28.71032727 142.76418718 29.60533298 147.22434974 30.4954586 151.68553925 C30.82408898 153.32675761 31.15504503 154.96751218 31.48844147 156.60776901 C31.94164627 158.83920501 32.38662061 161.0721257 32.82948303 163.30563354 C33.20695726 165.18332585 33.20695726 165.18332585 33.59205723 167.09895134 C34 170 34 170 33 172 C30.35139573 172.59355614 27.70802678 172.74209269 25 173 C20.57927454 152.63900586 16.36589818 132.24162255 12.25390625 111.81640625 C12.1025241 111.06479304 11.95114194 110.31317983 11.79517245 109.53879046 C10.36254324 102.42564776 8.93110374 95.31226692 7.50315952 88.19818211 C5.69528667 79.19154649 3.88076438 70.18630559 2.05751663 61.18276936 C0.76323034 54.78861881 -0.52372195 48.39301893 -1.80518776 41.99628681 C-2.56657725 38.19662649 -3.33114012 34.39767151 -4.10363579 30.60025215 C-4.8253544 27.05165479 -5.53798421 23.50135358 -6.24362755 19.94952583 C-6.62734921 18.030265 -7.0206116 16.11291938 -7.41415405 14.19564819 C-7.63970474 13.05125778 -7.86525543 11.90686737 -8.09764099 10.72779846 C-8.2972515 9.73636621 -8.49686201 8.74493395 -8.70252132 7.72345829 C-9.01244858 4.88603157 -8.71398588 2.7486948 -8 0 C-4.71303767 -0.79953138 -3.28976808 -1.09658936 0 0 Z "
        fill="#F38C25" transform="translate(205,6)" />
    <path
        d="M0 0 C0.48220263 1.87422152 0.96061833 3.74941754 1.4375 5.625 C1.70433594 6.66914063 1.97117187 7.71328125 2.24609375 8.7890625 C2.96470383 11.84967123 3.49811691 14.89779431 4 18 C-5.13683071 20.40265852 -14.33978742 22.33338056 -23.609375 24.13671875 C-25.07201349 24.42362396 -26.534598 24.71080454 -27.99713135 24.99824524 C-31.80391227 25.74566264 -35.61140364 26.48939488 -39.41906738 27.2322998 C-43.32149036 27.9943912 -47.22321292 28.76005149 -51.125 29.52539062 C-58.74932793 31.02037439 -66.37441177 32.51145654 -74 34 C-75.48510798 29.69265836 -76.47994625 25.64037622 -77.125 21.125 C-77.37636719 19.39636719 -77.37636719 19.39636719 -77.6328125 17.6328125 C-77.75398438 16.76398438 -77.87515625 15.89515625 -78 15 C-61.73716536 11.42572712 -45.43895645 8.03217924 -29.11654663 4.74142456 C-27.08270216 4.3309162 -25.04919177 3.91874909 -23.01602173 3.50491333 C-20.12752964 2.91764367 -17.23780737 2.336855 -14.34765625 1.7578125 C-13.47788147 1.57996719 -12.60810669 1.40212189 -11.7119751 1.21888733 C-7.75231065 0.43281001 -4.06108889 -0.23289028 0 0 Z "
        fill="#F7CE1F" transform="translate(370,189)" />
    <path
        d="M0 0 C0.50478485 2.41575607 1.00397642 4.83244361 1.5 7.25 C1.64308594 7.93191406 1.78617187 8.61382812 1.93359375 9.31640625 C2.61251049 12.64633121 3 15.58332551 3 19 C-13.26283464 22.57427288 -29.56104355 25.96782076 -45.88345337 29.25857544 C-47.91729784 29.6690838 -49.95080823 30.08125091 -51.98397827 30.49508667 C-54.87247036 31.08235633 -57.76219263 31.663145 -60.65234375 32.2421875 C-61.95700592 32.50895546 -61.95700592 32.50895546 -63.2880249 32.78111267 C-67.24768935 33.56718999 -70.93891111 34.23289028 -75 34 C-75.50690584 31.93918639 -76.00524619 29.87626474 -76.5 27.8125 C-76.7784375 26.66394531 -77.056875 25.51539063 -77.34375 24.33203125 C-77.91495385 21.43181171 -78.13283779 18.93903615 -78 16 C-73.67779964 14.46989755 -69.41963806 13.38466675 -64.92480469 12.48779297 C-64.24439117 12.35095093 -63.56397766 12.21410889 -62.86294556 12.07312012 C-60.63332063 11.62572362 -58.4026441 11.18384051 -56.171875 10.7421875 C-54.61576827 10.4314434 -53.05971846 10.12041407 -51.50372314 9.80911255 C-48.25295194 9.15958216 -45.00168227 8.51262943 -41.75 7.86767578 C-37.57719489 7.03993434 -33.40542965 6.20708664 -29.23398972 5.37249565 C-26.02592517 4.73099132 -22.81746419 4.09148956 -19.60886383 3.45267105 C-18.0697433 3.14612126 -16.53071599 2.83910303 -14.99178314 2.5316124 C-12.8474409 2.10360838 -10.70261202 1.67813766 -8.55761719 1.25341797 C-7.33661316 1.01074188 -6.11560913 0.7680658 -4.85760498 0.51803589 C-2 0 -2 0 0 0 Z "
        fill="#F6BF20" transform="translate(365,161)" />
    <path
        d="M0 0 C2.30088742 8.82611532 4.23023405 17.69878328 6.01855469 26.64111328 C6.30610755 28.06823644 6.59388998 29.49531336 6.88188171 30.92234802 C7.65508022 34.75786584 8.42461114 38.59411001 9.19305706 42.43058252 C9.67372043 44.82952287 10.15515532 47.22830709 10.63684845 49.62704086 C12.31805294 57.99945444 13.99611232 66.37249166 15.67138672 74.74609375 C17.232789 82.55005573 18.80141889 90.35254204 20.37327838 98.15440381 C21.72499993 104.86534662 23.07157605 111.57730849 24.4141438 118.29008853 C25.21516937 122.29467748 26.01833088 126.29880947 26.82674408 130.30191422 C27.58452547 134.05514286 28.33593022 137.80959096 29.08234596 141.5650959 C29.35776947 142.94508795 29.63551195 144.32461941 29.91569328 145.70365334 C30.29648355 147.57968271 30.66825019 149.45753707 31.03948975 151.33547974 C31.25037106 152.38733019 31.46125237 153.43918064 31.67852402 154.52290535 C32 157 32 157 31 159 C28.35139573 159.59355614 25.70802678 159.74209269 23 160 C20.28649283 146.56544827 17.57346223 133.13080039 14.86097813 119.69604206 C13.60032599 113.45218396 12.33953252 107.20835447 11.07836914 100.96459961 C10.83589762 99.76410036 10.59342609 98.56360111 10.34360695 97.3267231 C9.85527057 94.90894383 9.36689647 92.49117217 8.87848473 90.07340813 C7.66460771 84.06305264 6.45235264 78.05237744 5.24331665 72.04104614 C4.76528438 69.66488741 4.28720647 67.28873785 3.80908203 64.91259766 C3.5753721 63.75107241 3.34166218 62.58954716 3.10087013 61.39282417 C1.71913581 54.53632271 0.32168908 47.68326572 -1.09048748 40.83297062 C-1.95793097 36.62081187 -2.81837108 32.40723921 -3.67781258 28.19344139 C-4.07877407 26.23732003 -4.48315948 24.28189699 -4.89117241 22.32723427 C-5.44793247 19.65889824 -5.99297756 16.98841998 -6.53540039 14.31713867 C-6.70068048 13.54075987 -6.86596058 12.76438107 -7.03624916 11.96447563 C-7.8254982 8.01363041 -8.16255336 4.89166138 -7 1 C-2.25 0 -2.25 0 0 0 Z "
        fill="#F38C25" transform="translate(217,17)" />
    <path
        d="M0 0 C3.7869816 18.81812578 7.56846247 37.63734888 11.34339142 56.45789623 C13.09626886 65.19649791 14.85094703 73.93473078 16.60986328 82.67211914 C18.14286112 90.28728499 19.67248169 97.90312003 21.1980443 105.51977903 C22.0059931 109.55300271 22.81563331 113.58587019 23.62931824 117.6179409 C24.39516209 121.4132186 25.1564862 125.20937493 25.91435814 129.00625229 C26.19325344 130.39935349 26.47379639 131.79212601 26.75611305 133.18453789 C27.14154336 135.08678417 27.52045684 136.99034741 27.89904785 138.89396667 C28.11290382 139.95863757 28.3267598 141.02330847 28.54709625 142.12024212 C28.96952492 144.80622624 29.08811231 147.28737007 29 150 C26.36 150.33 23.72 150.66 21 151 C18.79951851 142.51845944 16.90797905 134.00573582 15.1809082 125.41625977 C14.91468114 124.10237709 14.64822529 122.78854076 14.38156128 121.4747467 C13.66629066 117.94684271 12.95453407 114.41823904 12.24373269 110.88943219 C11.64815371 107.93403364 11.05096874 104.97896045 10.45384473 102.02387375 C9.04594549 95.055914 7.6410825 88.08734678 6.23803711 81.1184082 C4.79244192 73.9384546 3.34117675 66.75966299 1.88725215 59.58139187 C0.63532123 53.39923143 -0.61287234 47.21632427 -1.85812122 41.03281444 C-2.60033941 37.34746503 -3.3440189 33.6624258 -4.09140587 29.9781208 C-4.92273463 25.87915481 -5.74627866 21.77866239 -6.5690918 17.67797852 C-6.8168486 16.46180847 -7.06460541 15.24563843 -7.31987 13.99261475 C-7.54271667 12.8755867 -7.76556335 11.75855865 -7.99516296 10.60768127 C-8.19037379 9.63971398 -8.38558462 8.67174669 -8.58671093 7.67444706 C-8.98951797 5.06783058 -9.07691508 2.63255427 -9 0 C-5.5657338 -0.85856655 -3.38317487 -0.97591583 0 0 Z "
        fill="#F38C25" transform="translate(192,31)" />
    <path
        d="M0 0 C2.47331761 2.47331761 2.58525961 3.92983079 3.26553345 7.3387146 C3.49546494 8.47159409 3.72539642 9.60447357 3.96229553 10.77168274 C4.20757492 12.02055771 4.45285431 13.26943268 4.70556641 14.55615234 C4.97121809 15.88012017 5.23753569 17.20395453 5.50447083 18.52766418 C6.22833307 22.12755529 6.94254514 25.72930037 7.65487337 29.33148909 C8.40121171 33.09827268 9.15564402 36.86343504 9.9090271 40.6288147 C11.1734407 46.95463147 12.43188474 53.28161267 13.68652344 59.609375 C15.13725722 66.92590647 16.59601002 74.24080181 18.05939925 81.55481184 C19.46633753 88.58706142 20.86887515 95.62018061 22.26896286 102.65379715 C22.86505061 105.64836014 23.46244466 108.64265814 24.06084061 111.63676071 C24.76544059 115.16378004 25.46610961 118.69155843 26.16374779 122.21996117 C26.54288467 124.13289821 26.92577085 126.04509095 27.3087616 127.95726013 C27.64519936 129.66503883 27.64519936 129.66503883 27.98843384 131.40731812 C28.18494349 132.39656973 28.38145313 133.38582134 28.58391762 134.40505028 C29 137 29 137 29 141 C26.36 141.33 23.72 141.66 21 142 C19.65637353 138.14622859 18.57383738 134.37075671 17.77243042 130.37008667 C17.55091309 129.2737793 17.32939575 128.17747192 17.10116577 127.04794312 C16.86523712 125.86020294 16.62930847 124.67246277 16.38623047 123.44873047 C16.13234558 122.18631531 15.87846069 120.92390015 15.61688232 119.62322998 C14.92334616 116.17372626 14.23465287 112.72327245 13.54705572 109.27258062 C12.8260059 105.65718004 12.10119212 102.0425338 11.37698364 98.42776489 C10.16212903 92.36075979 8.95051187 86.2931147 7.74072266 80.22509766 C6.34228638 73.2111268 4.9382996 66.19828392 3.53144157 59.18599784 C2.32263229 53.16010255 1.11682171 47.13361289 -0.08648384 41.10661614 C-0.80474259 37.50908889 -1.52403689 33.91177716 -2.24603653 30.31499863 C-3.05010343 26.30836297 -3.84787877 22.30049986 -4.64501953 18.29248047 C-4.88499664 17.10069183 -5.12497375 15.9089032 -5.3722229 14.68099976 C-5.58810059 13.59033203 -5.80397827 12.49966431 -6.02639771 11.37594604 C-6.21553301 10.42876143 -6.40466831 9.48157681 -6.59953499 8.50568962 C-7 6 -7 6 -7 2 C-4.69 1.34 -2.38 0.68 0 0 Z "
        fill="#F38C25" transform="translate(182,42)" />
    <path
        d="M0 0 C2.08708231 8.06930225 3.91814051 16.15631082 5.54370117 24.33032227 C5.77822495 25.49768417 6.01274872 26.66504608 6.25437927 27.86778259 C7.0201238 31.68341961 7.78169903 35.49987414 8.54296875 39.31640625 C9.07633824 41.98258405 9.6103985 44.6486234 10.1443634 47.31468201 C11.25838883 52.8793787 12.37000361 58.44455289 13.48022461 64.01000977 C14.76338805 70.44222244 16.05074434 76.8735856 17.3402254 83.30453449 C18.45068074 88.84320717 19.55889198 94.38232536 20.66522008 99.92182392 C21.3246175 103.22348394 21.98479003 106.52498378 22.64699364 109.82608223 C23.38227756 113.49491444 24.11387952 117.1644617 24.84448242 120.83422852 C25.17403931 122.4729039 25.17403931 122.4729039 25.51025391 124.14468384 C25.70785812 125.1411644 25.90546234 126.13764496 26.10905457 127.1643219 C26.28214236 128.03089196 26.45523016 128.89746202 26.63356304 129.79029179 C27 132 27 132 27 135 C24.03 135.33 21.06 135.66 18 136 C15.20042625 122.13362222 12.40105018 108.26720454 9.60191727 94.40073776 C8.30176354 87.96001047 7.0015451 81.51929626 5.70117188 75.07861328 C4.44312722 68.84756869 3.18526155 62.61648799 1.92751312 56.38538361 C1.45081533 54.02389525 0.97405614 51.66241928 0.49723053 49.30095673 C0.2695977 48.17359352 0.04196487 47.04623032 -0.19256592 45.88470459 C-0.41539875 44.78122807 -0.63823158 43.67775154 -0.86781693 42.54083633 C-1.3009105 40.39396816 -1.73334071 38.24696604 -2.16505051 36.09981918 C-3.16910802 31.10623341 -4.18071497 26.11451861 -5.21252441 21.12658691 C-5.49501982 19.74860868 -5.49501982 19.74860868 -5.7832222 18.34279251 C-6.13248109 16.63984719 -6.48540874 14.93764814 -6.84284592 13.2364006 C-7.61977213 9.42751406 -8.20933909 5.91226081 -8 2 C-2.25 0 -2.25 0 0 0 Z "
        fill="#F38C25" transform="translate(249,35)" />
    <path
        d="M0 0 C5.3308506 24.17441529 10.15229637 48.45170869 14.99755859 72.72705078 C16.15830422 78.54235126 17.32259651 84.35693544 18.48784447 90.17133522 C19.38996044 94.67471842 20.29025889 99.17846344 21.189991 103.68232346 C21.61924406 105.82992215 22.04906776 107.97740687 22.47947311 110.12477493 C23.0745975 113.09534879 23.66727557 116.06640016 24.25927734 119.03759766 C24.5256601 120.36343872 24.5256601 120.36343872 24.79742432 121.71606445 C26 127.77143403 26 127.77143403 26 130 C23.03 130.33 20.06 130.66 17 131 C14.18321007 117.04725759 11.36656639 103.09448566 8.55010509 89.1416769 C7.24205164 82.66157565 5.9339494 76.18148426 4.62573242 69.70141602 C3.36124914 63.43796691 2.09689824 57.17449109 0.83263588 50.91099739 C0.35230453 48.53142423 -0.12807305 46.1518604 -0.60849953 43.77230644 C-0.83862928 42.63245859 -1.06875904 41.49261074 -1.30586243 40.31822205 C-1.52955348 39.21045442 -1.75324453 38.10268679 -1.9837141 36.96135044 C-2.41384923 34.82921421 -2.84333683 32.69694722 -3.27210712 30.56453609 C-4.16361806 26.13138181 -5.05912262 21.69946191 -5.98324585 17.27297974 C-6.12691684 16.57762399 -6.27058783 15.88226824 -6.41861248 15.1658411 C-6.78341366 13.40311073 -7.15306422 11.64138572 -7.52323914 9.879776 C-7.96883988 7.18821633 -8.09516138 4.72123759 -8 2 C-2.25 0 -2.25 0 0 0 Z "
        fill="#F38C25" transform="translate(240,42)" />
    <path
        d="M0 0 C3.96 0 7.92 0 12 0 C12 17.82 12 35.64 12 54 C8.04 54 4.08 54 0 54 C0 36.18 0 18.36 0 0 Z "
        fill="#383838" transform="translate(523,262)" />
    <path
        d="M0 0 C0.50643553 2.22771342 1.0048962 4.45724076 1.5 6.6875 C1.7784375 7.92886719 2.056875 9.17023438 2.34375 10.44921875 C2.89354126 13.42398218 3.13795705 15.99368602 3 19 C0.58525383 19.53160457 -1.83108107 20.05054766 -4.25 20.5625 C-4.93191406 20.71396484 -5.61382812 20.86542969 -6.31640625 21.02148438 C-9.81769038 21.75233495 -12.60298173 22.32203546 -16 21 C-16.50354867 18.56318413 -17.00296756 16.12564561 -17.5 13.6875 C-17.64308594 12.99720703 -17.78617188 12.30691406 -17.93359375 11.59570312 C-18.52625044 8.67475227 -19 5.98891878 -19 3 C-16.58424393 2.49521515 -14.16755639 1.99602358 -11.75 1.5 C-11.06808594 1.35691406 -10.38617188 1.21382812 -9.68359375 1.06640625 C-6.35366879 0.38748951 -3.41667449 0 0 0 Z "
        fill="#F7CE1F" transform="translate(229,217)" />
    <path
        d="M0 0 C0.50354867 2.43681587 1.00296756 4.87435439 1.5 7.3125 C1.64308594 8.00279297 1.78617187 8.69308594 1.93359375 9.40429688 C2.52625044 12.32524773 3 15.01108122 3 18 C0.58424393 18.50478485 -1.83244361 19.00397642 -4.25 19.5 C-4.93191406 19.64308594 -5.61382812 19.78617188 -6.31640625 19.93359375 C-9.64633121 20.61251049 -12.58332551 21 -16 21 C-16.50643553 18.77228658 -17.0048962 16.54275924 -17.5 14.3125 C-17.7784375 13.07113281 -18.056875 11.82976562 -18.34375 10.55078125 C-18.89354126 7.57601782 -19.13795705 5.00631398 -19 2 C-16.58525383 1.46839543 -14.16891893 0.94945234 -11.75 0.4375 C-11.06808594 0.28603516 -10.38617188 0.13457031 -9.68359375 -0.02148438 C-6.18230962 -0.75233495 -3.39701827 -1.32203546 0 0 Z "
        fill="#F7CE1F" transform="translate(284,207)" />
    <path
        d="M0 0 C0.50478485 2.41575607 1.00397642 4.83244361 1.5 7.25 C1.64308594 7.93191406 1.78617188 8.61382812 1.93359375 9.31640625 C2.61251049 12.64633121 3 15.58332551 3 19 C0.77228658 19.50643553 -1.45724076 20.0048962 -3.6875 20.5 C-4.92886719 20.7784375 -6.17023438 21.056875 -7.44921875 21.34375 C-10.42398218 21.89354126 -12.99368602 22.13795705 -16 22 C-16.53160457 19.58525383 -17.05054766 17.16891893 -17.5625 14.75 C-17.78969727 13.72712891 -17.78969727 13.72712891 -18.02148438 12.68359375 C-18.75233495 9.18230962 -19.32203546 6.39701827 -18 3 C-15.56318413 2.49645133 -13.12564561 1.99703244 -10.6875 1.5 C-9.99720703 1.35691406 -9.30691406 1.21382812 -8.59570312 1.06640625 C-5.67475227 0.47374956 -2.98891878 0 0 0 Z "
        fill="#F6BF20" transform="translate(251,184)" />
    <path
        d="M0 0 C2.26475565 5.82365738 3.06548814 11.8560816 4 18 C2.14703165 18.48377991 0.29255559 18.96178636 -1.5625 19.4375 C-2.59503906 19.70433594 -3.62757813 19.97117188 -4.69140625 20.24609375 C-8.11530243 21.02627316 -11.51893525 21.54785666 -15 22 C-15.50643553 19.77228658 -16.0048962 17.54275924 -16.5 15.3125 C-16.7784375 14.07113281 -17.056875 12.82976562 -17.34375 11.55078125 C-17.89354126 8.57601782 -18.13795705 6.00631398 -18 3 C-15.93918639 2.49309416 -13.87626474 1.99475381 -11.8125 1.5 C-10.66394531 1.2215625 -9.51539063 0.943125 -8.33203125 0.65625 C-5.43181171 0.08504615 -2.93903615 -0.13283779 0 0 Z "
        fill="#F6BF20" transform="translate(223,190)" />
    <path
        d="M0 0 C0.50690584 2.06081361 1.00524619 4.12373526 1.5 6.1875 C1.7784375 7.33605469 2.056875 8.48460937 2.34375 9.66796875 C2.91495385 12.56818829 3.13283779 15.06096385 3 18 C-2.82365738 20.26475565 -8.8560816 21.06548814 -15 22 C-15.48377991 20.14703165 -15.96178636 18.29255559 -16.4375 16.4375 C-16.70433594 15.40496094 -16.97117187 14.37242187 -17.24609375 13.30859375 C-18.02627316 9.88469757 -18.54785666 6.48106475 -19 3 C-16.77228658 2.49356447 -14.54275924 1.9951038 -12.3125 1.5 C-10.45044922 1.08234375 -10.45044922 1.08234375 -8.55078125 0.65625 C-5.57601782 0.10645874 -3.00631398 -0.13795705 0 0 Z "
        fill="#F6BF20" transform="translate(278,179)" />
    <path
        d="M0 0 C0.50904657 1.87256417 1.00682455 3.74819341 1.5 5.625 C1.7784375 6.66914063 2.056875 7.71328125 2.34375 8.7890625 C2.99118596 11.95687418 3.1161292 14.77741467 3 18 C1.12743583 18.50904657 -0.74819341 19.00682455 -2.625 19.5 C-3.66914063 19.7784375 -4.71328125 20.056875 -5.7890625 20.34375 C-8.95687418 20.99118596 -11.77741467 21.1161292 -15 21 C-15.48220263 19.12577848 -15.96061833 17.25058246 -16.4375 15.375 C-16.83775391 13.80878906 -16.83775391 13.80878906 -17.24609375 12.2109375 C-17.96452539 9.15108876 -18.51976716 6.1051949 -19 3 C-16.96040523 2.49161436 -14.91820862 1.99366114 -12.875 1.5 C-11.73804688 1.2215625 -10.60109375 0.943125 -9.4296875 0.65625 C-6.18533302 0.03546235 -3.29185543 -0.12006768 0 0 Z "
        fill="#F7CE1F" transform="translate(256,212)" />
    <path
        d="M0 0 C1.9375 1 1.9375 1 3 3 C3.52673518 6.56102656 3.62932095 9.7413581 2 13 C-1.2586419 14.62932095 -4.43897344 14.52673518 -8 14 C-10 12.9375 -10 12.9375 -11 11 C-11.49573337 7.10495209 -11.58016848 4.90506283 -9.4375 1.5625 C-6.09493717 -0.58016848 -3.89504791 -0.49573337 0 0 Z "
        fill="#383838" transform="translate(532,245)" />
    <path d="M0 0 C0.66 0 1.32 0 2 0 C1.67 0.66 1.34 1.32 1 2 C0.67 1.34 0.34 0.68 0 0 Z "
        fill="#F05A2B" transform="translate(212,1)" />
</svg>