<svg version="1.1" xmlns="http://www.w3.org/2000/svg" width="512" height="512">
    <path
        d="M0 0 C0.99868909 -0.00297112 1.99737819 -0.00594224 3.02633059 -0.0090034 C6.35908455 -0.01764635 9.69180239 -0.01919493 13.02456665 -0.02069092 C15.42015662 -0.02532233 17.81574585 -0.03034742 20.21133423 -0.03573608 C26.71186048 -0.04883371 33.21237985 -0.05533771 39.71291685 -0.05974674 C43.78023756 -0.06251761 47.84755591 -0.06675656 51.91487503 -0.07125092 C63.19913521 -0.08343966 74.48339352 -0.09373856 85.76766014 -0.09712601 C86.48888342 -0.09734557 87.2101067 -0.09756514 87.95318524 -0.09779136 C88.67603937 -0.09800964 89.39889351 -0.09822791 90.14365232 -0.09845281 C91.60818887 -0.09889626 93.07272542 -0.09934282 94.53726196 -0.09979248 C95.2637076 -0.10001391 95.99015323 -0.10023534 96.73861237 -0.10046348 C108.48858398 -0.10440477 120.23849332 -0.12184006 131.98844092 -0.145152 C144.08217627 -0.16895013 156.17588049 -0.18133175 168.26963961 -0.18249393 C175.04751456 -0.18340615 181.82530843 -0.18904286 188.60316086 -0.20731354 C194.98736375 -0.22388814 201.37141365 -0.2259044 207.75563049 -0.21717453 C210.08628883 -0.21640908 212.41695571 -0.22068117 214.74759293 -0.23063278 C258.07962913 -0.40465983 296.27158717 14.14096113 327.37026978 44.66778564 C335.82133285 53.25263113 342.72223089 62.77794547 348.81997681 73.14044189 C349.16657349 73.72519287 349.51317017 74.30994385 349.87026978 74.91241455 C362.01010239 95.68527045 368.98307225 119.22610484 368.9604187 143.32046509 C368.96487538 144.81849873 368.96487538 144.81849873 368.9694221 146.34679568 C368.97806505 149.67954963 368.97961363 153.01226748 368.98110962 156.34503174 C368.98574103 158.7406217 368.99076612 161.13621093 368.99615479 163.53179932 C369.00925242 170.03232557 369.01575642 176.53284494 369.02016544 183.03338194 C369.02293631 187.10070264 369.02717527 191.168021 369.03166962 195.23534012 C369.04385836 206.5196003 369.05415726 217.80385861 369.05754471 229.08812523 C369.05776427 229.80934851 369.05798384 230.53057179 369.05821006 231.27365033 C369.05842834 231.99650446 369.05864662 232.7193586 369.05887151 233.46411741 C369.05931496 234.92865396 369.05976152 236.3931905 369.06021118 237.85772705 C369.06043261 238.58417268 369.06065404 239.31061832 369.06088218 240.05907746 C369.06482347 251.80904907 369.08225876 263.55895841 369.1055707 275.308906 C369.12936883 287.40264135 369.14175045 299.49634558 369.14291263 311.5901047 C369.14382485 318.36797965 369.14946156 325.14577352 369.16773224 331.92362595 C369.18430684 338.30782883 369.1863231 344.69187874 369.17759323 351.07609558 C369.17682778 353.40675392 369.18109987 355.7374208 369.19105148 358.06805801 C369.36507853 401.40009422 354.81945758 439.59205226 324.29263306 470.69073486 C315.70778757 479.14179794 306.18247323 486.04269597 295.81997681 492.14044189 C295.23522583 492.48703857 294.65047485 492.83363525 294.04800415 493.19073486 C273.27514825 505.33056748 249.73431386 512.30353734 225.63995361 512.28088379 C224.64126452 512.28385491 223.64257542 512.28682603 222.61362302 512.28988719 C219.28086907 512.29853014 215.94815122 512.30007872 212.61538696 512.30157471 C210.219797 512.30620611 207.82420777 512.31123121 205.42861938 512.31661987 C198.92809313 512.3297175 192.42757376 512.3362215 185.92703676 512.34063053 C181.85971606 512.3434014 177.7923977 512.34764035 173.72507858 512.3521347 C162.4408184 512.36432345 151.15656009 512.37462235 139.87229347 512.3780098 C138.79045855 512.37833915 138.79045855 512.37833915 137.68676838 512.37867515 C136.96391424 512.37889343 136.2410601 512.3791117 135.49630129 512.3793366 C134.03176474 512.37978005 132.5672282 512.38022661 131.10269165 512.38067627 C130.37624602 512.3808977 129.64980038 512.38111913 128.90134124 512.38134727 C117.15136963 512.38528855 105.40146029 512.40272385 93.6515127 512.42603579 C81.55777735 512.44983392 69.46407312 512.46221554 57.370314 512.46337771 C50.59243905 512.46428994 43.81464518 512.46992664 37.03679276 512.48819733 C30.65258987 512.50477193 24.26853996 512.50678819 17.88432312 512.49805832 C15.55366478 512.49729287 13.2229979 512.50156496 10.89236069 512.51151657 C-32.43967552 512.68554362 -70.63163355 498.13992266 -101.73031616 467.61309814 C-110.18137924 459.02825266 -117.08227727 449.50293832 -123.18002319 439.14044189 C-123.52661987 438.55569092 -123.87321655 437.97093994 -124.23031616 437.36846924 C-139.15366328 411.83265263 -143.96888288 384.22270078 -143.82699585 354.93341064 C-143.83379502 352.5269607 -143.84271086 350.12051597 -143.85354614 347.71408081 C-143.87607264 341.2594098 -143.86761464 334.80514453 -143.85165071 328.35046768 C-143.84267249 324.30057544 -143.84447118 320.25073325 -143.84910202 316.20083618 C-143.84986819 315.52315191 -143.85063435 314.84546765 -143.85142373 314.14724749 C-143.85302277 312.7694531 -143.85464384 311.39165874 -143.85628669 310.0138644 C-143.87045789 297.17115175 -143.8542884 284.32861914 -143.82728486 271.48593605 C-143.80495393 260.5272569 -143.80883651 249.56884283 -143.83187866 238.61016846 C-143.85879081 225.80542442 -143.86908541 213.00083715 -143.85381734 200.19606876 C-143.85222502 198.82406174 -143.85065316 197.45205468 -143.84910202 196.08004761 C-143.84833064 195.40544076 -143.84755927 194.73083391 -143.84676451 194.03578442 C-143.84249339 189.33985864 -143.8498857 184.64406472 -143.86149979 179.94815063 C-143.87611257 173.59803788 -143.86562045 167.2484178 -143.8370285 160.89835739 C-143.83050645 158.58998806 -143.83215941 156.2815761 -143.84334183 153.97322464 C-144.02984188 111.50758545 -129.37532516 73.193066 -99.75082397 42.66778564 C-73.70742027 16.77431011 -36.88675524 -0.03468097 0 0 Z "
        fill="#2492FF" transform="translate(143.18002319335938,-0.14044189453125)" />
    <path
        d="M0 0 C0.9075 -0.01289062 1.815 -0.02578125 2.75 -0.0390625 C12.86182842 2.02705629 19.59049999 8.49647639 26.61865234 15.62841797 C27.6372089 16.64346597 28.65684319 17.65743345 29.67745972 18.67041016 C32.42413384 21.40293595 35.15504907 24.15071279 37.88283873 26.90207434 C40.75023589 29.78969935 43.63073986 32.66419892 46.50942993 35.54055786 C51.33770265 40.368884 56.15606695 45.20692193 60.96826172 50.05126953 C66.52203991 55.6419758 72.08978365 61.21845964 77.66553533 66.78724563 C83.04517581 72.16057014 88.41622311 77.54240031 93.78294754 82.9286232 C96.06023425 85.21405777 98.34020218 87.49676624 100.62235641 89.77733994 C103.31018515 92.46428645 105.99029655 95.15870811 108.66475296 97.85896301 C109.64415085 98.84549047 110.62606072 99.82953177 111.61071777 100.81081009 C118.95938616 108.13907395 124.97850942 114.45683073 125.3125 125.25 C125.20519326 131.87375257 123.59311353 137.63251323 119.19921875 142.703125 C112.51356406 148.88248739 106.35732956 150.92075737 97.35546875 151.21875 C88.12010207 149.5845524 81.61179047 143.95903424 75.24560547 137.43823242 C74.43459885 136.62795593 73.62359222 135.81767944 72.78800964 134.98284912 C70.13569515 132.32707776 67.50149046 129.65409657 64.8671875 126.98046875 C63.02169608 125.12564258 61.17509066 123.27192419 59.3274231 121.41926575 C54.97916706 117.05554091 50.64380217 112.67924299 46.3130542 108.29814941 C41.37732882 103.30631233 36.42720096 98.3288616 31.47588134 93.35249937 C21.30128636 83.12580426 11.14466856 72.88138121 1 62.625 C-2.06251784 63.99102711 -4.15046971 65.5334947 -6.5022583 67.91366577 C-7.17774216 68.59218094 -7.85322601 69.27069611 -8.54917908 69.96977234 C-9.27963943 70.71370743 -10.01009979 71.45764252 -10.76269531 72.22412109 C-11.54046829 73.00802719 -12.31824127 73.79193329 -13.11958313 74.59959412 C-14.80829958 76.30261829 -16.4947722 78.00786969 -18.17926788 79.71506882 C-20.84797124 82.41854231 -23.52369696 85.1148745 -26.20159912 87.80923462 C-33.81463935 95.47118525 -41.41658237 103.14406238 -49.00927734 110.82617188 C-53.65386305 115.52528128 -58.30910266 120.21368035 -62.96999359 124.89662552 C-64.74235775 126.68138704 -66.51092024 128.46993233 -68.27555084 130.26234055 C-70.7478192 132.77316622 -73.23228046 135.27131251 -75.71972656 137.76708984 C-76.44209 138.50697647 -77.16445343 139.2468631 -77.90870667 140.00917053 C-83.99533826 146.07268501 -90.67903141 150.6665756 -99.5625 150.9375 C-106.21591553 150.83081258 -111.94620259 149.21957975 -117.078125 144.859375 C-123.67395847 137.82012415 -125.28099654 131.32147991 -125.59375 121.84765625 C-123.83061938 112.27803284 -116.68801602 105.73060778 -110.04418945 99.13574219 C-109.03424082 98.11872219 -108.0251342 97.10086547 -107.01679993 96.08224487 C-104.29446637 93.33754484 -101.55970409 90.60556477 -98.82172036 87.87648678 C-96.52926841 85.58917049 -94.2430806 83.29564355 -91.95683354 81.00212789 C-86.55973419 75.58807011 -81.15248404 70.18430443 -75.73852539 64.78710938 C-70.17004729 59.23555181 -64.61814691 53.66780913 -59.07430106 48.09166217 C-54.29764101 43.28823758 -49.51125401 38.49466164 -44.71696061 33.70883679 C-41.86079383 30.85757879 -39.00824141 28.0029425 -36.16485023 25.1389389 C-33.48952099 22.44514426 -30.80214016 19.76396241 -28.10536003 17.0916481 C-27.12316541 16.1144269 -26.14511768 15.13301521 -25.17180634 14.14694595 C-18.26512829 7.15700833 -10.45220198 -0.14846878 0 0 Z "
        fill="#FDFEFF" transform="translate(256,125.375)" />
    <path
        d="M0 0 C5.32421168 2.8387192 9.30062904 7.19634966 13.49053574 11.46395302 C14.51872931 12.48892151 15.54822191 13.51258826 16.57889938 14.53505898 C19.35472142 17.29643417 22.11158207 20.07603679 24.86485434 22.85987306 C27.75847601 25.77999629 30.66805649 28.68414132 33.57552719 31.59046364 C38.45251166 36.47025063 43.31777982 41.36147265 48.17559433 46.26033974 C53.78244772 51.91440153 59.40485959 57.55259747 65.03646266 63.18200141 C71.04832175 69.19183035 77.04868734 75.21303524 83.04574823 81.23762679 C84.76801468 82.9662697 86.49238747 84.69278715 88.21724701 86.41884232 C90.93143763 89.13605848 93.63780664 91.86084083 96.33843803 94.59153175 C97.32751952 95.58933404 98.31910543 96.5846613 99.31342888 97.57723999 C106.68354616 104.93931952 112.75726297 111.27101838 113.09258652 122.10726357 C112.98527977 128.73101613 111.37320005 134.4897768 106.97930527 139.56038857 C100.29365058 145.73975095 94.13741608 147.77802093 85.13555527 148.07601357 C75.90018858 146.44181597 69.39187699 140.8162978 63.02569199 134.29549599 C62.21468536 133.4852195 61.40367874 132.67494301 60.56809616 131.84011269 C57.91578167 129.18434133 55.28157698 126.51136013 52.64727402 123.83773232 C50.80178259 121.98290614 48.95517718 120.12918775 47.10750961 118.27652931 C42.75925358 113.91280447 38.42388869 109.53650656 34.09314072 105.15541297 C29.15741534 100.16357589 24.20728748 95.18612517 19.25596786 90.20976293 C9.08137288 79.98306782 -1.07524493 69.73864478 -11.21991348 59.48226357 C-14.28243132 60.84829068 -16.37038319 62.39075827 -18.72217178 64.77092934 C-19.39765564 65.4494445 -20.0731395 66.12795967 -20.76909256 66.8270359 C-21.49955292 67.57097099 -22.23001328 68.31490608 -22.9826088 69.08138466 C-23.76038177 69.86529076 -24.53815475 70.64919685 -25.33949661 71.45685768 C-27.02821306 73.15988185 -28.71468568 74.86513325 -30.39918137 76.57233238 C-33.06788472 79.27580588 -35.74361044 81.97213807 -38.4215126 84.66649818 C-46.03455283 92.32844882 -53.63649585 100.00132595 -61.22919083 107.68343544 C-65.87377653 112.38254485 -70.52901614 117.07094392 -75.18990707 121.75388908 C-76.96227123 123.5386506 -78.73083372 125.32719589 -80.49546432 127.11960411 C-82.96773268 129.63042978 -85.45219394 132.12857608 -87.93964005 134.62435341 C-88.66200348 135.36424004 -89.38436691 136.10412666 -90.12862015 136.8664341 C-96.21525174 142.92994857 -102.8989449 147.52383916 -111.78241348 147.79476357 C-118.43582901 147.68807614 -124.16611607 146.07684332 -129.29803848 141.71663857 C-135.89387196 134.67738771 -137.50091002 128.17874348 -137.81366348 118.70491982 C-136.05053287 109.1352964 -128.90792951 102.58787134 -122.26410294 95.99300575 C-121.25415431 94.97598575 -120.24504768 93.95812903 -119.23671341 92.93950844 C-116.51437986 90.1948084 -113.77961757 87.46282834 -111.04163384 84.73375034 C-108.74918189 82.44643406 -106.46299409 80.15290711 -104.17674702 77.85939145 C-98.77964767 72.44533368 -93.37239752 67.04156799 -87.95843887 61.64437294 C-82.38996078 56.09281538 -76.83806039 50.52507269 -71.29421455 44.94892573 C-66.51755449 40.14550115 -61.7311675 35.3519252 -56.93687409 30.56610036 C-54.08070731 27.71484235 -51.2281549 24.86020606 -48.38476372 21.99620247 C-45.70943447 19.30240782 -43.02205364 16.62122598 -40.32527351 13.94891167 C-39.34307889 12.97169046 -38.36503117 11.99027877 -37.39171982 11.00420952 C-26.18660348 -0.3359838 -15.58834669 -6.38687813 0 0 Z "
        fill="#FDFEFF" transform="translate(268.219913482666,238.51773643493652)" />
</svg>