<svg version="1.0" xmlns="http://www.w3.org/2000/svg"
    width="134.000000pt" height="80.000000pt" viewBox="0 0 134.000000 80.000000"
    preserveAspectRatio="xMidYMid meet">

    <g transform="translate(0.000000,80.000000) scale(0.100000,-0.100000)"
        fill="#e1e1e1" stroke="none">
        <path d="M515 779 c88 -10 198 -20 244 -21 78 -3 84 -2 92 20 l8 22 -252 -1
-252 -1 160 -19z" />
        <path
            d="M742 418 c-89 -211 -164 -391 -168 -401 -6 -16 2 -17 122 -15 l128 3
25 62 24 63 97 0 98 0 7 -65 7 -65 126 0 127 0 -27 378 c-15 207 -27 387 -27
400 l-1 22 -189 0 -188 0 -161 -382z m308 22 l0 -110 -49 0 -49 0 35 88 c19
48 39 97 44 110 5 12 11 22 14 22 3 0 5 -49 5 -110z" />
        <path
            d="M310 674 c19 -5 474 -53 476 -51 2 1 5 14 9 30 l7 27 -253 -1 c-140
-1 -247 -3 -239 -5z" />
        <path d="M508 523 c123 -14 225 -24 226 -22 2 2 7 14 10 27 l7 22 -233 -1
-233 -1 223 -25z" />
        <path
            d="M405 405 c221 -26 285 -30 285 -16 0 5 3 16 6 25 6 14 -20 16 -242
15 l-249 -1 200 -23z" />
        <path
            d="M165 303 c64 -12 461 -50 466 -45 4 4 10 17 14 30 l6 22 -253 -1
c-139 -1 -244 -3 -233 -6z" />
        <path
            d="M102 185 c4 -4 438 -55 468 -55 6 0 30 44 30 55 0 3 -113 5 -252 5
-138 0 -249 -2 -246 -5z" />
        <path d="M255 34 c264 -30 269 -30 283 1 l12 25 -248 -1 -247 -2 200 -23z" />
    </g>
</svg>