<svg version="1.1" xmlns="http://www.w3.org/2000/svg" width="400" height="400">
    <path
        d="M0 0 C0.92759957 -0.00453111 1.85519914 -0.00906223 2.81090778 -0.01373065 C5.89107524 -0.02629908 8.97106416 -0.02475917 12.05125427 -0.02310181 C14.27142563 -0.02909189 16.49159491 -0.03589854 18.71176147 -0.04345703 C24.72452689 -0.06107812 30.73723533 -0.06581085 36.75002408 -0.0670886 C40.51348981 -0.06851329 44.27694121 -0.07278896 48.04040337 -0.07808304 C60.51216957 -0.09561954 72.98390359 -0.10492488 85.45567954 -0.10342209 C86.1265942 -0.10334218 86.79750886 -0.10326227 87.48875427 -0.10317993 C88.16050015 -0.10309817 88.83224602 -0.10301641 89.52434783 -0.10293217 C100.39545118 -0.10212036 111.26641562 -0.12123585 122.13747884 -0.14945666 C133.33291327 -0.1782872 144.52829706 -0.19162631 155.72377342 -0.19026911 C161.99579878 -0.18976121 168.26766693 -0.1953487 174.5396595 -0.21662521 C180.44542517 -0.23611315 186.35088538 -0.23606022 192.25666237 -0.22159195 C194.41197409 -0.21951561 196.56730546 -0.22413376 198.72258377 -0.23631287 C228.27499868 -0.39235773 254.98674643 8.07248329 276.35765076 29.20492554 C293.48275121 46.90273427 304.61422039 71.2228079 304.52351379 96.01133728 C304.52804491 96.93893685 304.53257602 97.86653642 304.53724444 98.82224506 C304.54981287 101.90241252 304.54827296 104.98240144 304.5466156 108.06259155 C304.55260568 110.28276291 304.55941233 112.50293219 304.56697083 114.72309875 C304.58459191 120.73586418 304.58932465 126.74857261 304.5906024 132.76136136 C304.59202708 136.52482709 304.59630275 140.28827849 304.60159683 144.05174065 C304.61913333 156.52350685 304.62843867 168.99524087 304.62693588 181.46701682 C304.62685597 182.13793148 304.62677606 182.80884614 304.62669373 183.50009155 C304.62661196 184.17183743 304.6265302 184.8435833 304.62644596 185.53568511 C304.62563416 196.40678846 304.64474964 207.2777529 304.67297046 218.14881612 C304.701801 229.34425055 304.7151401 240.53963434 304.71378291 251.7351107 C304.71327501 258.00713606 304.71886249 264.27900421 304.74013901 270.55099678 C304.75962694 276.45676245 304.75957402 282.36222266 304.74510574 288.26799965 C304.7430294 290.42331137 304.74764756 292.57864274 304.75982666 294.73392105 C304.91587153 324.28633596 296.4510305 350.99808371 275.31858826 372.36898804 C257.62077952 389.4940885 233.3007059 400.62555767 208.51217651 400.53485107 C207.58457695 400.53938219 206.65697738 400.5439133 205.70126873 400.54858172 C202.62110127 400.56115015 199.54111235 400.55961024 196.46092224 400.55795288 C194.24075089 400.56394296 192.02058161 400.57074961 189.80041504 400.57830811 C183.78764962 400.59592919 177.77494118 400.60066193 171.76215243 400.60193968 C167.9986867 400.60336436 164.23523531 400.60764003 160.47177315 400.61293411 C148.00000694 400.63047061 135.52827293 400.63977595 123.05649697 400.63827316 C122.38558231 400.63819325 121.71466765 400.63811334 121.02342224 400.63803101 C120.35167637 400.63794924 119.67993049 400.63786748 118.98782868 400.63778324 C108.11672533 400.63697144 97.24576089 400.65608692 86.37469768 400.68430774 C75.17926325 400.71313828 63.98387946 400.72647738 52.78840309 400.72512019 C46.51637773 400.72461229 40.24450959 400.73019977 33.97251701 400.75147629 C28.06675135 400.77096422 22.16129114 400.7709113 16.25551414 400.75644302 C14.10020243 400.75436668 11.94487105 400.75898484 9.78959274 400.77116394 C-19.76282217 400.92720881 -46.47456992 392.46236778 -67.84547424 371.32992554 C-84.9705747 353.6321168 -96.10204388 329.31204318 -96.01133728 304.52351379 C-96.01586839 303.59591423 -96.02039951 302.66831466 -96.02506793 301.71260601 C-96.03763636 298.63243855 -96.03609645 295.55244963 -96.03443909 292.47225952 C-96.04042917 290.25208817 -96.04723582 288.03191889 -96.05479431 285.81175232 C-96.0724154 279.7989869 -96.07714813 273.78627846 -96.07842588 267.77348971 C-96.07985057 264.01002398 -96.08412624 260.24657259 -96.08942032 256.48311043 C-96.10695682 244.01134423 -96.11626216 231.53961021 -96.11475937 219.06783425 C-96.11467946 218.39691959 -96.11459955 217.72600493 -96.11451721 217.03475952 C-96.11443545 216.36301365 -96.11435369 215.69126777 -96.11426945 214.99916596 C-96.11345764 204.12806261 -96.13257313 193.25709817 -96.16079395 182.38603496 C-96.18962448 171.19060053 -96.20296359 159.99521674 -96.20160639 148.79974037 C-96.20109849 142.52771501 -96.20668598 136.25584687 -96.22796249 129.98385429 C-96.24745043 124.07808863 -96.24739751 118.17262842 -96.23292923 112.26685143 C-96.23085289 110.11153971 -96.23547104 107.95620833 -96.24765015 105.80093002 C-96.40369501 76.24851511 -87.93885399 49.53676736 -66.80641174 28.16586304 C-49.10860301 11.04076258 -24.78852938 -0.0907066 0 0 Z "
        fill="#39D39A" transform="translate(95.74391174316406,-0.267425537109375)" />
    <path
        d="M0 0 C31.43310522 24.07746438 35.86382042 81.84166576 41.125 118.0625 C41.29660645 119.23852783 41.46821289 120.41455566 41.64501953 121.6262207 C42.40796545 127.09134788 43.02814841 132.35599801 42.8125 137.875 C43.75416016 137.63523438 43.75416016 137.63523438 44.71484375 137.390625 C58.28717504 135.13142231 74.59524406 135.5164658 86.1953125 143.5546875 C90.82170771 147.33179277 93.38983693 151.72949694 94.18359375 157.63671875 C94.39267442 166.84856716 92.01378707 173.48919034 86 180.5 C75.64156477 189.94116559 62.34159093 193.26758326 48.8125 194.875 C48.88178711 195.44863281 48.95107422 196.02226562 49.02246094 196.61328125 C50.0255289 206.02284403 50.05500478 215.422754 50.0625 224.875 C50.06350708 225.75739349 50.06451416 226.63978699 50.06555176 227.54891968 C50.01991996 286.91656005 50.01991996 286.91656005 33.8125 308.875 C33.19375 309.74125 32.575 310.6075 31.9375 311.5 C26.38500686 317.70572762 19.20814941 320.30541647 11.07421875 321.1640625 C2.65345829 321.42609465 -4.86263562 320.0875999 -11.5625 314.75 C-18.08052218 308.5216677 -20.12574889 300.62794357 -20.34571838 291.81265259 C-20.36618772 290.24706436 -20.38157642 288.68140431 -20.39282227 287.11572266 C-20.40272186 286.25653229 -20.41262146 285.39734192 -20.42282104 284.51211548 C-20.45426932 281.68779199 -20.4791272 278.86345171 -20.50390625 276.0390625 C-20.52449019 274.07465186 -20.54548704 272.11024551 -20.56687927 270.14584351 C-20.62195122 264.9871163 -20.67142586 259.82835012 -20.71972656 254.66955566 C-20.77005049 249.40076242 -20.8256796 244.13202548 -20.88085938 238.86328125 C-20.98825888 228.53390231 -21.08974397 218.20447439 -21.1875 207.875 C-27.73778875 208.95373989 -34.2804282 210.05064754 -40.8046875 211.27734375 C-42.15700022 211.52931286 -43.509379 211.78092759 -44.86181641 212.03222656 C-45.5483429 212.15988403 -46.23486938 212.2875415 -46.94219971 212.41906738 C-58.40469907 214.54599305 -69.84380889 216.55314839 -81.42529297 217.93725586 C-82.62629639 218.08432983 -82.62629639 218.08432983 -83.8515625 218.234375 C-84.86404053 218.34990723 -84.86404053 218.34990723 -85.89697266 218.46777344 C-86.65284668 218.6021582 -87.4087207 218.73654297 -88.1875 218.875 C-89.93123901 219.13591431 -89.93123901 219.13591431 -91.71020508 219.40209961 C-95.96558644 221.20457913 -96.57939421 222.54624664 -98.26669312 226.66371155 C-98.70895737 227.8607798 -98.70895737 227.8607798 -99.16015625 229.08203125 C-99.48948151 229.9108934 -99.81880676 230.73975555 -100.15811157 231.59373474 C-101.21650654 234.2817695 -102.23409315 236.98315303 -103.25 239.6875 C-103.96396736 241.53077102 -104.67921894 243.37354512 -105.39575195 245.21582031 C-109.53235637 255.95550478 -113.22535963 266.71540682 -116.109375 277.86328125 C-117.55980224 283.4620875 -119.72388506 288.65155835 -122.1875 293.875 C-122.95513672 295.59783203 -122.95513672 295.59783203 -123.73828125 297.35546875 C-128.29147306 307.27663406 -134.46237997 316.91271813 -144.45703125 322.0390625 C-152.80696308 324.59540787 -163.32681012 323.85224048 -171.14453125 320.0546875 C-178.52254412 315.79434355 -181.42028016 310.75265002 -184.1875 302.875 C-184.8799783 300.17637131 -185.10032771 297.65425767 -185.1875 294.875 C-185.26097656 294.05257813 -185.33445313 293.23015625 -185.41015625 292.3828125 C-187.49660257 253.75680631 -157.94019578 204.23024502 -142.1875 169.875 C-141.40850342 168.16256104 -141.40850342 168.16256104 -140.61376953 166.41552734 C-126.73244558 135.9350081 -112.08541284 105.58347816 -95.61230469 76.41259766 C-94.00516061 73.55025093 -92.42787345 70.67240529 -90.8515625 67.79296875 C-58.3600555 8.68670306 -58.3600555 8.68670306 -39.5 -1 C-37.85451172 -1.86238281 -37.85451172 -1.86238281 -36.17578125 -2.7421875 C-25.31290633 -7.76892962 -9.95121676 -6.56929949 0 0 Z "
        fill="#101726" transform="translate(240.1875,33.125)" />
    <path
        d="M0 0 C31.43310522 24.07746438 35.86382042 81.84166576 41.125 118.0625 C41.29660645 119.23852783 41.46821289 120.41455566 41.64501953 121.6262207 C42.40796545 127.09134788 43.02814841 132.35599801 42.8125 137.875 C43.75416016 137.63523438 43.75416016 137.63523438 44.71484375 137.390625 C58.28717504 135.13142231 74.59524406 135.5164658 86.1953125 143.5546875 C90.82170771 147.33179277 93.38983693 151.72949694 94.18359375 157.63671875 C94.39267442 166.84856716 92.01378707 173.48919034 86 180.5 C75.64156477 189.94116559 62.34159093 193.26758326 48.8125 194.875 C48.88178711 195.44863281 48.95107422 196.02226562 49.02246094 196.61328125 C50.0255289 206.02284403 50.05500478 215.422754 50.0625 224.875 C50.06350708 225.75739349 50.06451416 226.63978699 50.06555176 227.54891968 C50.01991996 286.91656005 50.01991996 286.91656005 33.8125 308.875 C33.19375 309.74125 32.575 310.6075 31.9375 311.5 C26.38500686 317.70572762 19.20814941 320.30541647 11.07421875 321.1640625 C2.65345829 321.42609465 -4.86263562 320.0875999 -11.5625 314.75 C-18.08052218 308.5216677 -20.12574889 300.62794357 -20.34571838 291.81265259 C-20.36618772 290.24706436 -20.38157642 288.68140431 -20.39282227 287.11572266 C-20.40272186 286.25653229 -20.41262146 285.39734192 -20.42282104 284.51211548 C-20.45426932 281.68779199 -20.4791272 278.86345171 -20.50390625 276.0390625 C-20.52449019 274.07465186 -20.54548704 272.11024551 -20.56687927 270.14584351 C-20.62195122 264.9871163 -20.67142586 259.82835012 -20.71972656 254.66955566 C-20.77005049 249.40076242 -20.8256796 244.13202548 -20.88085938 238.86328125 C-20.98825888 228.53390231 -21.08974397 218.20447439 -21.1875 207.875 C-27.73778875 208.95373989 -34.2804282 210.05064754 -40.8046875 211.27734375 C-42.15700022 211.52931286 -43.509379 211.78092759 -44.86181641 212.03222656 C-45.5483429 212.15988403 -46.23486938 212.2875415 -46.94219971 212.41906738 C-58.40469907 214.54599305 -69.84380889 216.55314839 -81.42529297 217.93725586 C-82.62629639 218.08432983 -82.62629639 218.08432983 -83.8515625 218.234375 C-84.86404053 218.34990723 -84.86404053 218.34990723 -85.89697266 218.46777344 C-86.65284668 218.6021582 -87.4087207 218.73654297 -88.1875 218.875 C-89.93123901 219.13591431 -89.93123901 219.13591431 -91.71020508 219.40209961 C-95.96558644 221.20457913 -96.57939421 222.54624664 -98.26669312 226.66371155 C-98.70895737 227.8607798 -98.70895737 227.8607798 -99.16015625 229.08203125 C-99.48948151 229.9108934 -99.81880676 230.73975555 -100.15811157 231.59373474 C-101.21650654 234.2817695 -102.23409315 236.98315303 -103.25 239.6875 C-103.96396736 241.53077102 -104.67921894 243.37354512 -105.39575195 245.21582031 C-109.53235637 255.95550478 -113.22535963 266.71540682 -116.109375 277.86328125 C-117.55980224 283.4620875 -119.72388506 288.65155835 -122.1875 293.875 C-122.95513672 295.59783203 -122.95513672 295.59783203 -123.73828125 297.35546875 C-128.29147306 307.27663406 -134.46237997 316.91271813 -144.45703125 322.0390625 C-152.80696308 324.59540787 -163.32681012 323.85224048 -171.14453125 320.0546875 C-178.52254412 315.79434355 -181.42028016 310.75265002 -184.1875 302.875 C-184.8799783 300.17637131 -185.10032771 297.65425767 -185.1875 294.875 C-185.26097656 294.05257813 -185.33445313 293.23015625 -185.41015625 292.3828125 C-187.49660257 253.75680631 -157.94019578 204.23024502 -142.1875 169.875 C-141.40850342 168.16256104 -141.40850342 168.16256104 -140.61376953 166.41552734 C-126.73244558 135.9350081 -112.08541284 105.58347816 -95.61230469 76.41259766 C-94.00516061 73.55025093 -92.42787345 70.67240529 -90.8515625 67.79296875 C-58.3600555 8.68670306 -58.3600555 8.68670306 -39.5 -1 C-37.85451172 -1.86238281 -37.85451172 -1.86238281 -36.17578125 -2.7421875 C-25.31290633 -7.76892962 -9.95121676 -6.56929949 0 0 Z M-45.1875 18.875 C-72.83612376 50.82846566 -91.21064188 92.88669343 -110 130.375 C-110.30870026 130.98972168 -110.61740051 131.60444336 -110.93545532 132.23779297 C-114.62969843 139.60184098 -118.21462323 147.00657932 -121.67892456 154.48126221 C-123.84155485 159.14686815 -126.06336287 163.78073437 -128.30810547 168.40722656 C-132.94569789 177.97817183 -137.3046017 187.61202234 -141.3359375 197.453125 C-142.68765296 200.73655524 -144.13261533 203.96591427 -145.6171875 207.19140625 C-148.23590691 212.91371966 -150.61523143 218.71448215 -152.9375 224.5625 C-153.36506592 225.63902832 -153.79263184 226.71555664 -154.2331543 227.82470703 C-155.55728487 231.17247205 -156.87361827 234.5232007 -158.1875 237.875 C-158.6014502 238.92606934 -159.01540039 239.97713867 -159.44189453 241.06005859 C-172.62579302 271.89442299 -172.62579302 271.89442299 -170.8359375 304.30078125 C-168.5554061 307.86208502 -166.17667996 309.67417542 -162.1875 310.875 C-155.51007147 311.60688564 -149.74822261 312.04554196 -144.1875 307.875 C-133.50465958 296.32153161 -129.37090274 279.62141981 -124.81176758 265.01953125 C-119.33988263 247.70860274 -112.59340591 230.78665109 -105.11328125 214.24609375 C-104.00564755 211.83347934 -104.00564755 211.83347934 -104.1875 208.875 C-103.37224854 208.76019287 -102.55699707 208.64538574 -101.71704102 208.52709961 C-82.32800764 205.7787199 -63.00834613 202.73180028 -43.71508789 199.37475586 C-42.08221612 199.09085591 -40.44932253 198.80708135 -38.81640625 198.5234375 C-37.63595482 198.31833305 -37.63595482 198.31833305 -36.43165588 198.10908508 C-27.6988323 196.60184298 -18.94468475 195.23231124 -10.1875 193.875 C-9.44049263 208.4593031 -9.09119984 223.02450685 -8.9765625 237.625 C-8.96224903 239.28475031 -8.94782367 240.94449966 -8.93328857 242.60424805 C-8.87496793 249.43566821 -8.819138 256.26703715 -8.78613281 263.09863281 C-8.76511958 267.34216801 -8.72982559 271.58538371 -8.68537521 275.82873535 C-8.67133899 277.42334241 -8.66252118 279.01800528 -8.65932083 280.6126709 C-9.09553999 293.88743333 -9.09553999 293.88743333 -3.74795532 305.52880859 C0.23137933 308.96174642 5.39300656 309.33278768 10.4453125 309.1796875 C16.31215209 308.42454973 21.17025654 306.12447326 25.0625 301.625 C45.29801507 271.35580848 39.19500548 218.67756473 35.8125 184.875 C36.49417236 184.82964111 37.17584473 184.78428223 37.87817383 184.73754883 C44.29823754 184.24276011 50.29309107 183.25435836 56.5 181.5625 C57.28955078 181.36205078 58.07910156 181.16160156 58.89257812 180.95507812 C65.9038006 179.08811616 72.65017805 176.67631274 77.75 171.3125 C78.31589844 170.73371094 78.88179687 170.15492188 79.46484375 169.55859375 C82.04230656 166.33863297 82.17363113 162.89314027 82.0703125 158.87109375 C81.61689526 155.36054508 80.55271125 154.1054045 77.8125 151.875 C65.22579573 146.20984091 45.75314785 147.56145072 32.8125 151.875 C32.68875 150.56660156 32.565 149.25820312 32.4375 147.91015625 C30.9442856 133.2725571 28.79925152 118.76076868 26.45898438 104.23727417 C26.1159255 102.10763103 25.77567709 99.97753293 25.43847656 97.84695435 C22.55662978 79.70540783 18.84516064 61.92295378 12.9375 44.5 C12.59726807 43.49324219 12.25703613 42.48648438 11.90649414 41.44921875 C7.7313328 29.39216745 3.05377834 15.88440448 -8.375 8.9375 C-23.04659982 3.39489562 -34.84911282 7.88147546 -45.1875 18.875 Z "
        fill="#000302" transform="translate(240.1875,33.125)" />
    <path
        d="M0 0 C1.99518171 3.43304126 2.59518167 6.6634403 3.21875 10.56640625 C3.42886719 11.85740234 3.63898438 13.14839844 3.85546875 14.47851562 C4.07057203 15.83980277 4.28541438 17.20113116 4.5 18.5625 C4.92511078 21.20995617 5.35342236 23.85688678 5.78125 26.50390625 C5.9867749 27.78563721 6.1922998 29.06736816 6.40405273 30.38793945 C6.92120387 33.52241344 7.47948939 36.64364992 8.06640625 39.765625 C9.07209844 45.21724332 9.79114584 50.68280049 10.4375 56.1875 C10.56165283 57.23470215 10.68580566 58.2819043 10.8137207 59.36083984 C11.8844527 68.60471423 12.80714243 77.86142118 13.6875 87.125 C13.75411835 87.81717621 13.82073669 88.50935242 13.88937378 89.22250366 C14.07984727 91.2130745 14.26462349 93.20418794 14.44921875 95.1953125 C14.55580811 96.34016113 14.66239746 97.48500977 14.7722168 98.66455078 C15.00820715 102.12017801 15.03876627 105.53742947 15 109 C1.16052185 112.59125699 -12.79214214 115.95315451 -26.875 118.4375 C-35.05115541 119.90239451 -43.06341291 121.94841631 -51.10498047 124.01928711 C-52.09900879 124.27460205 -53.09303711 124.52991699 -54.1171875 124.79296875 C-55.01034668 125.0252417 -55.90350586 125.25751465 -56.82373047 125.49682617 C-59 126 -59 126 -61 126 C-58.65452928 118.33867005 -55.4756296 111.24120464 -52.0625 104 C-51.55654297 102.91460937 -51.05058594 101.82921875 -50.52929688 100.7109375 C-41.2382143 80.85110839 -31.6589463 61.13109002 -21.85302734 41.52075195 C-20.23229121 38.27705815 -18.61804136 35.03018585 -17.00390625 31.78320312 C-11.62925167 21.00594575 -6.17996211 10.34148731 0 0 Z "
        fill="#000101" transform="translate(213,83)" />
    <path
        d="M0 0 C2.58598284 2.58598284 2.42302111 4.00342952 2.78125 7.609375 C2.90000488 8.74947021 3.01875977 9.88956543 3.14111328 11.06420898 C3.2595459 12.28052002 3.37797852 13.49683105 3.5 14.75 C3.75601427 17.23586294 4.0138061 19.72154349 4.2734375 22.20703125 C4.4585791 23.98907959 4.4585791 23.98907959 4.64746094 25.80712891 C5.04130558 29.37409579 5.55245398 32.89540557 6.125 36.4375 C7.46854476 45.22652195 7.66077466 54.12657917 8 63 C6.75347656 63.24234375 5.50695312 63.4846875 4.22265625 63.734375 C-5.07834154 65.56022507 -14.33917747 67.45035525 -23.52905273 69.78027344 C-27.09665633 70.66055095 -30.32246525 71.19840265 -34 71 C-32.67444672 66.77171774 -31.0712789 62.85982699 -29.12890625 58.87890625 C-28.55986572 57.70714844 -27.9908252 56.53539062 -27.40454102 55.328125 C-26.79060411 54.07287912 -26.1765887 52.81767163 -25.5625 51.5625 C-24.61092399 49.6081479 -23.66055263 47.6532133 -22.71031189 45.69821167 C-22.06917533 44.37926434 -21.42762337 43.06051887 -20.78565979 41.74197388 C-18.30530579 36.64347063 -15.86657633 31.52594788 -13.43847656 26.40234375 C-9.19865041 17.45928958 -4.85257513 8.62864042 0 0 Z "
        fill="#38CF97" transform="translate(207,120)" />
</svg>